<svg xmlns="http://www.w3.org/2000/svg" viewBox="0 0 24 24" fill="currentColor">
  <path d="M16.365 1.43c0 1.14-.472 2.29-1.27 3.12-.91.95-2.42 1.68-3.72 1.49-.15-1.02.22-2.14.97-2.92.79-.82 2.12-1.43 3.25-1.48.02.57.02 1.14.02 1.69zM19.708 15.19c-.27 1.22-1.23 3.04-2.59 4.52-1.04 1.13-2.24 2.24-3.68 2.24s-2.05-.72-3.62-.72-2.26.72-3.67.72c-1.44 0-2.64-1.27-3.68-2.38C.97 17.92-.17 15.22.02 12.86c.2-2.54 1.47-4.13 2.84-5.25 1.3-1.06 2.95-1.66 4.61-1.64 1.44.02 2.8.75 3.67.75.86 0 2.47-.9 4.2-.77.72.03 2.74.3 4.04 2.27-.1.06-2.41 1.41-2.4 4.22.01 3.32 2.94 4.41 3.03 4.46z"/>
</svg>
