<!-- github-icon.svg -->
<svg xmlns="http://www.w3.org/2000/svg" viewBox="0 0 24 24" width="20" height="20" fill="currentColor">
  <path d="M12 0C5.373 0 0 5.373 0 12a12 12 0 008.205 11.385c.6.11.82-.26.82-.577v-2.166c-3.338.726-4.042-1.608-4.042-1.608-.546-1.387-1.333-1.756-1.333-1.756-1.09-.745.082-.73.082-.73 1.205.085 1.84 1.238 1.84 1.238 1.07 1.832 2.808 1.303 3.492.996.108-.776.418-1.303.76-1.602-2.665-.3-5.466-1.332-5.466-5.93 0-1.31.468-2.38 1.236-3.22-.124-.303-.536-1.523.117-3.176 0 0 1.008-.322 3.3 1.23a11.5 11.5 0 016.004 0c2.292-1.552 3.297-1.23 3.297-1.23.655 1.653.243 2.873.12 3.176.77.84 1.235 1.91 1.235 3.22 0 4.61-2.804 5.628-5.476 5.922.43.37.823 1.102.823 2.222v3.293c0 .32.218.694.825.576A12.003 12.003 0 0024 12c0-6.627-5.373-12-12-12z"/>
</svg>
