<svg xmlns="http://www.w3.org/2000/svg" viewBox="0 0 48 48" width="24" height="24">
  <path fill="#EA4335" d="M24 9.5c3.54 0 6.42 1.22 8.44 3.22l6.26-6.26C34.86 2.98 29.8.5 24 .5 14.73.5 6.94 6.5 3.56 14.26l7.64 5.94C12.97 14.54 17.97 9.5 24 9.5z"/>
  <path fill="#4285F4" d="M46.1 24.5c0-1.56-.14-3.06-.39-4.5H24v9h12.37c-.53 2.85-2.16 5.26-4.64 6.92l7.26 5.66C43.88 37.07 46.1 31.2 46.1 24.5z"/>
  <path fill="#FBBC05" d="M10.96 28.8C9.97 26.57 9.45 24.11 9.45 21.5c0-2.6.52-5.06 1.5-7.29L3.56 8.26C1.27 12.64 0 17.41 0 22.5s1.27 9.86 3.56 14.24l7.4-7.94z"/>
  <path fill="#34A853" d="M24 44.5c6.36 0 11.7-2.1 15.6-5.74l-7.26-5.66c-2.02 1.37-4.61 2.2-8.34 2.2-6.03 0-11.03-5.04-11.83-11.68l-7.64-5.94C6.94 35.5 14.73 44.5 24 44.5z"/>
</svg>
